<?xml version="1.0" encoding="iso-8859-1"?>
<!-- Generator: Adobe Illustrator 19.0.0, SVG Export Plug-In . SVG Version: 6.00 Build 0)  -->
<svg xmlns="http://www.w3.org/2000/svg" xmlns:xlink="http://www.w3.org/1999/xlink" version="1.1" id="Layer_1" x="0px" y="0px" viewBox="0 0 512 512" style="enable-background:new 0 0 512 512;" xml:space="preserve">
<g>
	<g>
		<g>
			<path d="M469.333,362.667v-256c0-23.531-19.146-42.667-42.667-42.667h-384C19.146,64,0,83.135,0,106.667v256     c0,23.531,19.146,42.667,42.667,42.667h384C450.188,405.333,469.333,386.198,469.333,362.667z M21.333,362.667v-256     c0-11.76,9.563-21.333,21.333-21.333h384c11.771,0,21.333,9.573,21.333,21.333v256c0,11.76-9.563,21.333-21.333,21.333h-384     C30.896,384,21.333,374.427,21.333,362.667z"/>
			<path d="M501.333,138.667c-5.896,0-10.667,4.771-10.667,10.667v256c0,11.76-9.563,21.333-21.333,21.333h-384     c-5.896,0-10.667,4.771-10.667,10.667c0,5.896,4.771,10.667,10.667,10.667h384C492.854,448,512,428.865,512,405.333v-256     C512,143.438,507.229,138.667,501.333,138.667z"/>
			<path d="M394.667,298.667h-128c-5.896,0-10.667,4.771-10.667,10.667c0,5.896,4.771,10.667,10.667,10.667h128     c5.896,0,10.667-4.771,10.667-10.667C405.333,303.438,400.563,298.667,394.667,298.667z"/>
			<path d="M394.667,234.667h-128c-5.896,0-10.667,4.771-10.667,10.667c0,5.896,4.771,10.667,10.667,10.667h128     c5.896,0,10.667-4.771,10.667-10.667C405.333,239.438,400.563,234.667,394.667,234.667z"/>
			<path d="M394.667,170.667h-128c-5.896,0-10.667,4.771-10.667,10.667c0,5.896,4.771,10.667,10.667,10.667h128     c5.896,0,10.667-4.771,10.667-10.667C405.333,175.438,400.563,170.667,394.667,170.667z"/>
			<path d="M149.333,234.667C172.854,234.667,192,215.531,192,192s-19.146-42.667-42.667-42.667     c-23.521,0-42.667,19.135-42.667,42.667S125.813,234.667,149.333,234.667z M149.333,170.667c11.771,0,21.333,9.573,21.333,21.333     s-9.563,21.333-21.333,21.333C137.563,213.333,128,203.76,128,192S137.563,170.667,149.333,170.667z"/>
			<path d="M213.063,261.052c-14.917-7.167-38.063-15.719-63.729-15.719c-25.667,0-48.813,8.552-63.729,15.719     C72.271,267.469,64,280.271,64,294.458v4.875C64,310.729,73.563,320,85.333,320h128c11.771,0,21.333-9.271,21.333-20.667v-4.875     C234.667,280.271,226.396,267.469,213.063,261.052z M213.333,298.667l-128,0.667v-4.875c0-5.917,3.646-11.354,9.521-14.177     c12.917-6.208,32.833-13.615,54.479-13.615c21.646,0,41.563,7.406,54.479,13.615c5.875,2.823,9.521,8.26,9.521,14.177V298.667z"/>
		</g>
	</g>
</g>
<g>
</g>
<g>
</g>
<g>
</g>
<g>
</g>
<g>
</g>
<g>
</g>
<g>
</g>
<g>
</g>
<g>
</g>
<g>
</g>
<g>
</g>
<g>
</g>
<g>
</g>
<g>
</g>
<g>
</g>
</svg>
