<?xml version="1.0" encoding="iso-8859-1"?>
<!-- Generator: Adobe Illustrator 19.0.0, SVG Export Plug-In . SVG Version: 6.00 Build 0)  -->
<svg xmlns="http://www.w3.org/2000/svg" xmlns:xlink="http://www.w3.org/1999/xlink" version="1.1" id="Layer_1" x="0px" y="0px" viewBox="0 0 512 512" style="enable-background:new 0 0 512 512;" xml:space="preserve">
<g>
	<g>
		<g>
			<path d="M330.667,149.333H181.333c-17.646,0-32,14.354-32,32V288c0,17.646,14.354,32,32,32h149.333c17.646,0,32-14.354,32-32     V181.333C362.667,163.688,348.313,149.333,330.667,149.333z M181.333,170.667h149.333c1.283,0,2.477,0.315,3.616,0.73     l-78.293,64.134l-78.275-64.134C178.854,170.98,180.051,170.667,181.333,170.667z M341.333,288     c0,5.885-4.781,10.667-10.667,10.667H181.333c-5.885,0-10.667-4.781-10.667-10.667v-94.815l72.792,59.565     c3.771,2.427,8.104,3.708,12.542,3.708c4.406,0,8.74-1.271,13.552-4.427l71.781-58.828V288z"/>
			<path d="M405.333,0H106.667C83.135,0,64,19.135,64,42.667v426.667C64,492.865,83.135,512,106.667,512h298.667     C428.865,512,448,492.865,448,469.333V42.667C448,19.135,428.865,0,405.333,0z M426.667,469.333     c0,11.76-9.573,21.333-21.333,21.333H106.667c-11.76,0-21.333-9.573-21.333-21.333v-64h341.333V469.333z M426.667,384H85.333     V42.667c0-11.76,9.573-21.333,21.333-21.333h298.667c11.76,0,21.333,9.573,21.333,21.333V384z"/>
			<circle cx="256" cy="448" r="21.333"/>
			<circle cx="394.667" cy="53.333" r="10.667"/>
		</g>
	</g>
</g>
<g>
</g>
<g>
</g>
<g>
</g>
<g>
</g>
<g>
</g>
<g>
</g>
<g>
</g>
<g>
</g>
<g>
</g>
<g>
</g>
<g>
</g>
<g>
</g>
<g>
</g>
<g>
</g>
<g>
</g>
</svg>
