<?xml version="1.0" encoding="iso-8859-1"?>
<!-- Generator: Adobe Illustrator 19.0.0, SVG Export Plug-In . SVG Version: 6.00 Build 0)  -->
<svg xmlns="http://www.w3.org/2000/svg" xmlns:xlink="http://www.w3.org/1999/xlink" version="1.1" id="Layer_1" x="0px" y="0px" viewBox="0 0 512 512" style="enable-background:new 0 0 512 512;" xml:space="preserve">
<g>
	<g>
		<g>
			<path d="M496.375,139.958L372.042,15.625C361.969,5.552,348.573,0,334.323,0H177.677c-14.25,0-27.646,5.552-37.719,15.625     L15.625,139.958C5.552,150.031,0,163.427,0,177.677v156.646c0,14.25,5.552,27.646,15.625,37.719l124.333,124.333     C150.031,506.448,163.427,512,177.677,512h156.646c14.25,0,27.646-5.552,37.719-15.625l124.333-124.333     C506.448,361.969,512,348.573,512,334.323V177.677C512,163.427,506.448,150.031,496.375,139.958z M490.667,334.323     c0,8.552-3.333,16.583-9.375,22.635L356.958,481.292c-6.052,6.042-14.083,9.375-22.635,9.375H177.677     c-8.552,0-16.583-3.333-22.635-9.375L30.708,356.958c-6.042-6.052-9.375-14.083-9.375-22.635V177.677     c0-8.552,3.333-16.583,9.375-22.635L155.042,30.708c6.052-6.042,14.083-9.375,22.635-9.375h156.646     c8.552,0,16.583,3.333,22.635,9.375l124.333,124.333c6.042,6.052,9.375,14.083,9.375,22.635V334.323z"/>
			<path d="M384,128H128c-23.531,0-42.667,19.135-42.667,42.667v170.667C85.333,364.865,104.469,384,128,384h256     c23.531,0,42.667-19.135,42.667-42.667V170.667C426.667,147.135,407.531,128,384,128z M128,149.333h256     c3.003,0,5.845,0.652,8.44,1.777L267.333,252.677c-6.938,4.375-16.854,3.677-21.906,0.563L119.574,151.102     C122.164,149.98,125.003,149.333,128,149.333z M405.333,341.333c0,11.76-9.573,21.333-21.333,21.333H128     c-11.76,0-21.333-9.573-21.333-21.333V170.667c0-0.785,0.366-1.452,0.449-2.215l125.801,102.027     c6.927,4.479,14.917,6.854,23.083,6.854c7.875,0,15.573-2.198,22.323-6.375c0.615-0.323,1.208-0.708,1.75-1.156l124.816-101.327     c0.082,0.755,0.444,1.414,0.444,2.191V341.333z"/>
		</g>
	</g>
</g>
<g>
</g>
<g>
</g>
<g>
</g>
<g>
</g>
<g>
</g>
<g>
</g>
<g>
</g>
<g>
</g>
<g>
</g>
<g>
</g>
<g>
</g>
<g>
</g>
<g>
</g>
<g>
</g>
<g>
</g>
</svg>
