<?xml version="1.0" encoding="iso-8859-1"?>
<!-- Generator: Adobe Illustrator 19.0.0, SVG Export Plug-In . SVG Version: 6.00 Build 0)  -->
<svg xmlns="http://www.w3.org/2000/svg" xmlns:xlink="http://www.w3.org/1999/xlink" version="1.1" id="Layer_1" x="0px" y="0px" viewBox="0 0 469.333 469.333" style="enable-background:new 0 0 469.333 469.333;" xml:space="preserve">
<g>
	<g>
		<path d="M469.333,181.26c-0.021-3.333-1.604-6.458-4.271-8.458l-38.396-28.797v-26.672c0-2.833-1.125-5.542-3.125-7.542    L316.875,3.125c-2-2-4.708-3.125-7.542-3.125h-224C61.802,0,42.667,19.135,42.667,42.667v101.339L4.271,172.802    c-2.667,2-4.25,5.125-4.271,8.458c0,0.026,0.017,0.047,0.017,0.073H0v245.333c0,23.531,19.135,42.667,42.667,42.667h384    c23.531,0,42.667-19.135,42.667-42.667V181.333h-0.017C469.316,181.307,469.333,181.286,469.333,181.26z M426.667,170.663    l14.406,10.806c-3.904,3.03-8.868,6.891-14.406,11.203V170.663z M320,36.417l70.25,70.25h-48.917    c-11.76,0-21.333-9.573-21.333-21.333V36.417z M64,42.667c0-11.76,9.573-21.333,21.333-21.333h213.333v64    c0,23.531,19.135,42.667,42.667,42.667h64v81.318c-49.523,38.724-124.72,98.095-156.135,125.901    c-2.573,2.281-7.938,6.115-14.865,6.115c-5.063,0-9.948-2.052-14.531-6.115C188.176,307.215,113.344,248.033,64,209.384V42.667z     M42.667,170.664v22.044c-5.544-4.324-10.51-8.191-14.417-11.229L42.667,170.664z M448,426.667    c0,11.76-9.573,21.333-21.333,21.333h-384c-11.76,0-21.333-9.573-21.333-21.333V203.112    c44.49,34.63,147.421,115.396,184.323,148.086c8.479,7.5,18.396,11.469,28.677,11.469c10.354,0,20.656-4.073,29.01-11.469    C301.694,317.238,406.667,235.23,448,203.105V426.667z"/>
	</g>
</g>
<g>
</g>
<g>
</g>
<g>
</g>
<g>
</g>
<g>
</g>
<g>
</g>
<g>
</g>
<g>
</g>
<g>
</g>
<g>
</g>
<g>
</g>
<g>
</g>
<g>
</g>
<g>
</g>
<g>
</g>
</svg>
