<?xml version="1.0" encoding="iso-8859-1"?>
<!-- Generator: Adobe Illustrator 19.0.0, SVG Export Plug-In . SVG Version: 6.00 Build 0)  -->
<svg xmlns="http://www.w3.org/2000/svg" xmlns:xlink="http://www.w3.org/1999/xlink" version="1.1" id="Layer_1" x="0px" y="0px" viewBox="0 0 469.333 469.333" style="enable-background:new 0 0 469.333 469.333;" xml:space="preserve">
<g>
	<g>
		<g>
			<path d="M469.331,181.333c-0.003-3.298-1.521-6.409-4.133-8.427c0,0-26.228-20.345-60.198-47.004V85.333     c0-23.531-19.135-42.667-42.667-42.667h-61.792c-15.199-12.413-28.389-23.387-37.198-31.198     C254.869,3.972,244.768,0.001,234.671,0C224.565-0.001,214.462,3.976,206,11.469c-8.809,7.811-21.997,18.785-37.207,31.198     h-62.46c-23.531,0-42.667,19.135-42.667,42.667v41.092c-33.632,26.397-59.521,46.47-59.531,46.48     c-2.612,2.018-4.13,5.129-4.133,8.427H0v245.333c0,23.531,19.135,42.667,42.667,42.667h384c23.531,0,42.667-19.135,42.667-42.667     V181.333H469.331z M405,153.012c15.076,11.803,27.861,21.766,36.271,28.311c-8.398,6.518-21.207,16.48-36.271,28.259V153.012z      M220.146,27.437c9.146-8.104,19.885-8.115,29.052,0.01c4.801,4.246,10.855,9.406,17.81,15.219h-64.674     C209.29,36.853,215.345,31.689,220.146,27.437z M85,85.333C85,73.573,94.573,64,106.333,64h256     c11.76,0,21.333,9.573,21.333,21.333v140.967c-47.695,37.461-107.372,84.93-134.469,108.918     c-2.573,2.281-7.938,6.115-14.865,6.115c-5.063,0-9.948-2.052-14.531-6.115C192.413,310.967,132.602,263.319,85,225.87V85.333z      M63.667,153.535v55.589c-14.771-11.569-27.336-21.361-35.604-27.79C36.336,174.888,48.891,165.103,63.667,153.535z M448,426.667     c0,11.76-9.573,21.333-21.333,21.333h-384c-11.76,0-21.333-9.573-21.333-21.333V203.112     c44.49,34.63,147.421,115.396,184.323,148.086c8.479,7.5,18.396,11.469,28.677,11.469c10.354,0,20.656-4.073,29.01-11.469     C301.694,317.238,406.667,235.23,448,203.105V426.667z"/>
			<path d="M138.667,128h191.667c5.896,0,10.667-4.771,10.667-10.667c0-5.896-4.771-10.667-10.667-10.667H138.667     c-5.896,0-10.667,4.771-10.667,10.667C128,123.229,132.771,128,138.667,128z"/>
			<path d="M341,181.333c0-5.896-4.771-10.667-10.667-10.667H138.667c-5.896,0-10.667,4.771-10.667,10.667     c0,5.896,4.771,10.667,10.667,10.667h191.667C336.229,192,341,187.229,341,181.333z"/>
			<path d="M298.333,245.333c0-5.896-4.771-10.667-10.667-10.667H181c-5.896,0-10.667,4.771-10.667,10.667     c0,5.896,4.771,10.667,10.667,10.667h106.667C293.562,256,298.333,251.229,298.333,245.333z"/>
		</g>
	</g>
</g>
<g>
</g>
<g>
</g>
<g>
</g>
<g>
</g>
<g>
</g>
<g>
</g>
<g>
</g>
<g>
</g>
<g>
</g>
<g>
</g>
<g>
</g>
<g>
</g>
<g>
</g>
<g>
</g>
<g>
</g>
</svg>
