<?xml version="1.0" encoding="iso-8859-1"?>
<!-- Generator: Adobe Illustrator 19.0.0, SVG Export Plug-In . SVG Version: 6.00 Build 0)  -->
<svg xmlns="http://www.w3.org/2000/svg" xmlns:xlink="http://www.w3.org/1999/xlink" version="1.1" id="Layer_1" x="0px" y="0px" viewBox="0 0 469.333 469.333" style="enable-background:new 0 0 469.333 469.333;" xml:space="preserve">
<g>
	<g>
		<g>
			<path d="M469.333,181.26c-0.021-3.333-1.604-6.458-4.271-8.458l-38.396-28.797v-26.672c0-2.833-1.125-5.542-3.125-7.542     L316.875,3.125c-2-2-4.708-3.125-7.542-3.125h-224C61.812,0,42.667,19.135,42.667,42.667v101.339L4.271,172.802     c-2.667,2-4.25,5.125-4.271,8.458c0,0.026,0.017,0.047,0.017,0.073H0v245.333c0,23.531,19.146,42.667,42.667,42.667h384     c23.521,0,42.667-19.135,42.667-42.667V181.333h-0.017C469.316,181.307,469.333,181.286,469.333,181.26z M426.667,170.659     l14.417,10.81c-3.905,3.031-8.874,6.893-14.417,11.208V170.659z M320,36.417l70.25,70.25h-48.917     c-11.771,0-21.333-9.573-21.333-21.333V36.417z M64,42.667c0-11.76,9.563-21.333,21.333-21.333h213.333v64     c0,23.531,19.146,42.667,42.667,42.667h64v81.323c-14.94,11.681-32.137,25.18-49.859,39.198     c-5.341-8.363-12.677-15.422-21.641-19.979c-23.208-11.802-59.271-25.875-99.167-25.875s-75.958,14.073-99.167,25.875     c-8.997,4.576-16.355,11.664-21.707,20.061C96.095,234.577,78.921,221.068,64,209.38V42.667z M338.833,261.72     c-35.638,28.339-70.63,56.678-89.625,73.499c-4.479,3.948-18.542,9.625-29.417,0c-19.102-16.908-53.923-45.163-89.371-73.404     c3.322-6.081,8.396-11.023,14.746-14.253c21.146-10.75,53.813-23.563,89.5-23.563s68.354,12.813,89.5,23.563     C330.488,250.77,335.525,255.68,338.833,261.72z M42.667,170.664v22.042c-5.544-4.324-10.51-8.19-14.417-11.227L42.667,170.664z      M448,426.667c0,11.76-9.563,21.333-21.333,21.333h-384c-11.771,0-21.333-9.573-21.333-21.333V203.117     c44.484,34.622,147.363,115.349,184.333,148.081c8.479,7.5,18.375,11.469,28.667,11.469c10.354,0,20.646-4.073,29-11.469     C301.754,317.191,406.669,235.228,448,203.109V426.667z"/>
			<path d="M234.667,192c35.292,0,64-28.708,64-64c0-35.292-28.708-64-64-64s-64,28.708-64,64     C170.667,163.292,199.375,192,234.667,192z M234.667,85.333c23.521,0,42.667,19.135,42.667,42.667s-19.146,42.667-42.667,42.667     S192,151.531,192,128S211.146,85.333,234.667,85.333z"/>
		</g>
	</g>
</g>
<g>
</g>
<g>
</g>
<g>
</g>
<g>
</g>
<g>
</g>
<g>
</g>
<g>
</g>
<g>
</g>
<g>
</g>
<g>
</g>
<g>
</g>
<g>
</g>
<g>
</g>
<g>
</g>
<g>
</g>
</svg>
