<?xml version="1.0" encoding="iso-8859-1"?>
<!-- Generator: Adobe Illustrator 19.0.0, SVG Export Plug-In . SVG Version: 6.00 Build 0)  -->
<svg xmlns="http://www.w3.org/2000/svg" xmlns:xlink="http://www.w3.org/1999/xlink" version="1.1" id="Layer_1" x="0px" y="0px" viewBox="0 0 512 512" style="enable-background:new 0 0 512 512;" xml:space="preserve">
<g>
	<g>
		<g>
			<path d="M298.667,170.854V96c0-17.646-14.354-32-32-32c-7.938,0-15.604,3.042-21.542,8.563l-13.771,12.74     c-45.313,41.927-121.167,112.094-159.979,151.021C66.625,241.115,64,248.094,64,256s2.625,14.885,7.375,19.688     c38.813,38.917,114.667,109.083,159.979,151.01l13.771,12.74c5.938,5.521,13.604,8.563,21.542,8.563c17.646,0,32-14.354,32-32     v-74.583c122.188,1.896,192,36.615,192,95.917c0,5.896,4.771,10.667,10.667,10.667c5.896,0,10.667-4.771,10.667-10.667v-0.031     C512,272.135,434.417,175.625,298.667,170.854z M288,320c-5.896,0-10.667,4.771-10.667,10.667V416     c0,5.885-4.792,10.667-10.667,10.667c-3.25,0-5.625-1.563-7.042-2.875l-13.771-12.75C200.646,369.219,125,299.24,86.5,260.635     c-0.583-0.583-1.167-2.25-1.167-4.635s0.583-4.052,1.167-4.625C125,212.76,200.646,142.781,245.854,100.958l13.771-12.75     c1.417-1.313,3.792-2.875,7.042-2.875c5.875,0,10.667,4.781,10.667,10.667v85.333c0,5.896,4.771,10.667,10.667,10.667     c140.208,0,185.583,97.177,198.292,183.063C458.521,346.021,401.854,320,288,320z"/>
			<path d="M22.5,260.635c-0.583-0.583-1.167-2.25-1.167-4.635s0.583-4.052,1.167-4.625     C64.708,209.031,197.958,83.698,199.313,82.438c4.292-4.031,4.5-10.781,0.458-15.073c-4.063-4.313-10.792-4.49-15.083-0.469     c-1.333,1.26-134.833,126.833-177.313,169.427C2.625,241.115,0,248.094,0,256s2.625,14.885,7.375,19.688     c42.479,42.583,175.979,168.156,177.313,169.417C186.75,447.042,189.375,448,192,448c2.833,0,5.667-1.125,7.771-3.365     c4.042-4.292,3.833-11.042-0.458-15.073C197.958,428.302,64.708,302.969,22.5,260.635z"/>
		</g>
	</g>
</g>
<g>
</g>
<g>
</g>
<g>
</g>
<g>
</g>
<g>
</g>
<g>
</g>
<g>
</g>
<g>
</g>
<g>
</g>
<g>
</g>
<g>
</g>
<g>
</g>
<g>
</g>
<g>
</g>
<g>
</g>
</svg>
