<?xml version="1.0" encoding="iso-8859-1"?>
<!-- Generator: Adobe Illustrator 19.0.0, SVG Export Plug-In . SVG Version: 6.00 Build 0)  -->
<svg xmlns="http://www.w3.org/2000/svg" xmlns:xlink="http://www.w3.org/1999/xlink" version="1.1" id="Layer_1" x="0px" y="0px" viewBox="0 0 512 512" style="enable-background:new 0 0 512 512;" xml:space="preserve">
<g>
	<g>
		<g>
			<path d="M384,0H128c-23.531,0-42.667,19.135-42.667,42.667v426.667C85.333,492.865,104.469,512,128,512h256     c23.531,0,42.667-19.135,42.667-42.667V42.667C426.667,19.135,407.531,0,384,0z M405.333,469.333     c0,11.76-9.573,21.333-21.333,21.333H128c-11.76,0-21.333-9.573-21.333-21.333v-42.667h298.667V469.333z M405.333,405.333     H106.667V42.667c0-11.76,9.573-21.333,21.333-21.333h256c11.76,0,21.333,9.573,21.333,21.333V405.333z"/>
			<path d="M245.333,64h21.333c5.896,0,10.667-4.771,10.667-10.667c0-5.896-4.771-10.667-10.667-10.667h-21.333     c-5.896,0-10.667,4.771-10.667,10.667C234.667,59.229,239.438,64,245.333,64z"/>
			<path d="M224,469.333h64c5.896,0,10.667-4.771,10.667-10.667S293.896,448,288,448h-64c-5.896,0-10.667,4.771-10.667,10.667     S218.104,469.333,224,469.333z"/>
			<circle cx="373.333" cy="53.333" r="10.667"/>
			<path d="M330.667,170.667H181.333c-17.646,0-32,14.354-32,32v106.667c0,17.646,14.354,32,32,32h149.333c17.646,0,32-14.354,32-32     V202.667C362.667,185.021,348.313,170.667,330.667,170.667z M181.333,192h149.333c1.283,0,2.477,0.315,3.616,0.73l-78.293,64.134     l-78.275-64.134C178.854,192.314,180.051,192,181.333,192z M341.333,309.333c0,5.885-4.781,10.667-10.667,10.667H181.333     c-5.885,0-10.667-4.781-10.667-10.667v-94.815l72.792,59.565c3.771,2.427,8.104,3.708,12.542,3.708     c4.406,0,8.74-1.271,13.552-4.427l71.781-58.828V309.333z"/>
		</g>
	</g>
</g>
<g>
</g>
<g>
</g>
<g>
</g>
<g>
</g>
<g>
</g>
<g>
</g>
<g>
</g>
<g>
</g>
<g>
</g>
<g>
</g>
<g>
</g>
<g>
</g>
<g>
</g>
<g>
</g>
<g>
</g>
</svg>
