<?xml version="1.0" encoding="iso-8859-1"?>
<!-- Generator: Adobe Illustrator 19.0.0, SVG Export Plug-In . SVG Version: 6.00 Build 0)  -->
<svg xmlns="http://www.w3.org/2000/svg" xmlns:xlink="http://www.w3.org/1999/xlink" version="1.1" id="Layer_1" x="0px" y="0px" viewBox="0 0 512.001 512.001" style="enable-background:new 0 0 512.001 512.001;" xml:space="preserve">
<g>
	<g>
		<path d="M506.344,267.001L390.136,64.043c-5.667-9.906-14.833-16.978-25.813-19.916c-4.078-1.089-8.225-1.574-12.331-1.437    c-6.885,0.229-13.652,2.176-19.773,5.739L21.157,229.513C7.551,237.436-0.063,251.885,0,266.691    c0.031,7.151,1.867,14.385,5.656,21.007l91.794,160.304H53.334c-5.896,0-10.667,4.771-10.667,10.666s4.771,10.666,10.667,10.666    h405.333c5.896,0,10.667-4.771,10.667-10.666s-4.771-10.666-10.667-10.666H279.855l210.99-122.827    C504.457,317.252,512.066,302.803,512,288C511.969,280.851,510.134,273.619,506.344,267.001z M31.886,247.938L342.72,66.982    l-73.699,207.779c-1.813,3.656-4.552,6.667-7.948,8.74c-3.448,2.094-7.437,3.156-10.417,3.156c-0.021,0-0.031,0-0.031,0    L24.33,256.187C26.122,252.92,28.456,249.935,31.886,247.938z M480.115,306.73L237.456,448H122.043L24.555,277.743l224.372,30.154    c0.354,0.01,0.719,0.01,1.073,0.01c7.875,0,15.521-2.135,22.167-6.188c6.719-4.094,12.146-9.979,15.75-17.063    c0.365-0.604,0.667-1.24,0.906-1.917L365.06,67.804c2.615,1.781,4.927,3.975,6.555,6.822l116.208,202.969    C493.667,287.782,490.198,300.855,480.115,306.73z"/>
	</g>
</g>
<g>
</g>
<g>
</g>
<g>
</g>
<g>
</g>
<g>
</g>
<g>
</g>
<g>
</g>
<g>
</g>
<g>
</g>
<g>
</g>
<g>
</g>
<g>
</g>
<g>
</g>
<g>
</g>
<g>
</g>
</svg>
