<?xml version="1.0" encoding="iso-8859-1"?>
<!-- Generator: Adobe Illustrator 19.0.0, SVG Export Plug-In . SVG Version: 6.00 Build 0)  -->
<svg xmlns="http://www.w3.org/2000/svg" xmlns:xlink="http://www.w3.org/1999/xlink" version="1.1" id="Layer_1" x="0px" y="0px" viewBox="0 0 469.333 469.333" style="enable-background:new 0 0 469.333 469.333;" xml:space="preserve">
<g>
	<g>
		<path d="M426.667,362.667v-320C426.667,19.135,407.531,0,384,0H85.333C61.802,0,42.667,19.135,42.667,42.667v320    C19.135,362.667,0,381.802,0,405.333v21.333c0,23.531,19.135,42.667,42.667,42.667h384c23.531,0,42.667-19.135,42.667-42.667    v-21.333C469.333,381.802,450.198,362.667,426.667,362.667z M405.333,42.667v362.667h-55.299L238.104,267.5    c-2.25-3.479-3.438-7.448-3.438-11.5c0-3.969,1.135-7.865,3.302-11.292L404.667,39.374    C404.848,40.491,405.333,41.5,405.333,42.667z M64,42.667c0-11.76,9.573-21.333,21.333-21.333H384    c2.387,0,4.589,0.637,6.733,1.363l-169.868,209.23c-0.417,0.51-0.781,1.052-1.083,1.625c-4.219,6.792-6.448,14.531-6.448,22.448    c0,8.167,2.375,16.156,7.531,24.01l101.703,125.323H64V42.667z M448,426.667c0,11.76-9.573,21.333-21.333,21.333h-384    c-11.76,0-21.333-9.573-21.333-21.333v-21.333c0-11.76,9.573-21.333,21.333-21.333v32c0,5.896,4.771,10.667,10.667,10.667H416    c5.896,0,10.667-4.771,10.667-10.667v-32c11.76,0,21.333,9.573,21.333,21.333V426.667z"/>
	</g>
</g>
<g>
</g>
<g>
</g>
<g>
</g>
<g>
</g>
<g>
</g>
<g>
</g>
<g>
</g>
<g>
</g>
<g>
</g>
<g>
</g>
<g>
</g>
<g>
</g>
<g>
</g>
<g>
</g>
<g>
</g>
</svg>
