<?xml version="1.0" encoding="iso-8859-1"?>
<!-- Generator: Adobe Illustrator 19.0.0, SVG Export Plug-In . SVG Version: 6.00 Build 0)  -->
<svg xmlns="http://www.w3.org/2000/svg" xmlns:xlink="http://www.w3.org/1999/xlink" version="1.1" id="Layer_1" x="0px" y="0px" viewBox="0 0 512 512" style="enable-background:new 0 0 512 512;" xml:space="preserve">
<g>
	<g>
		<g>
			<path d="M469.333,64H42.667C19.146,64,0,83.135,0,106.667v298.667C0,428.865,19.146,448,42.667,448h426.667     C492.854,448,512,428.865,512,405.333V106.667C512,83.135,492.854,64,469.333,64z M490.667,405.333     c0,11.76-9.563,21.333-21.333,21.333H42.667c-11.771,0-21.333-9.573-21.333-21.333V106.667c0-11.76,9.563-21.333,21.333-21.333     h426.667c11.771,0,21.333,9.573,21.333,21.333V405.333z"/>
			<path d="M437.333,128H352c-5.896,0-10.667,4.771-10.667,10.667v106.667c0,5.896,4.771,10.667,10.667,10.667h85.333     c5.896,0,10.667-4.771,10.667-10.667V138.667C448,132.771,443.229,128,437.333,128z M426.667,234.667h-64v-85.333h64V234.667z"/>
			<path d="M245.333,362.667H74.667c-5.896,0-10.667,4.771-10.667,10.667C64,379.229,68.771,384,74.667,384h170.667     c5.896,0,10.667-4.771,10.667-10.667C256,367.438,251.229,362.667,245.333,362.667z"/>
			<path d="M74.667,320H160c5.896,0,10.667-4.771,10.667-10.667c0-5.896-4.771-10.667-10.667-10.667H74.667     c-5.896,0-10.667,4.771-10.667,10.667C64,315.229,68.771,320,74.667,320z"/>
		</g>
	</g>
</g>
<g>
</g>
<g>
</g>
<g>
</g>
<g>
</g>
<g>
</g>
<g>
</g>
<g>
</g>
<g>
</g>
<g>
</g>
<g>
</g>
<g>
</g>
<g>
</g>
<g>
</g>
<g>
</g>
<g>
</g>
</svg>
