<?xml version="1.0" encoding="iso-8859-1"?>
<!-- Generator: Adobe Illustrator 19.0.0, SVG Export Plug-In . SVG Version: 6.00 Build 0)  -->
<svg xmlns="http://www.w3.org/2000/svg" xmlns:xlink="http://www.w3.org/1999/xlink" version="1.1" id="Layer_1" x="0px" y="0px" viewBox="0 0 512 512" style="enable-background:new 0 0 512 512;" xml:space="preserve">
<g>
	<g>
		<path d="M510.216,239.776l0.159-0.099L403.708,69.01c-1.938-3.115-5.354-5.01-9.042-5.01H117.333c-3.688,0-7.104,1.896-9.042,5.01    L1.625,239.677l0.159,0.099C0.753,241.418,0,243.249,0,245.333v160C0,428.865,19.146,448,42.667,448h426.667    C492.854,448,512,428.865,512,405.333v-160C512,243.249,511.247,241.418,510.216,239.776z M123.25,85.333h265.5l93.34,149.333    h-76.756c-23.521,0-42.667,19.135-42.667,42.667c0,11.76-9.563,21.333-21.333,21.333H170.667    c-11.771,0-21.333-9.573-21.333-21.333c0-23.531-19.146-42.667-42.667-42.667H29.91L123.25,85.333z M490.667,405.333    c0,11.76-9.563,21.333-21.333,21.333H42.667c-11.771,0-21.333-9.573-21.333-21.333V256h85.333    c11.771,0,21.333,9.573,21.333,21.333C128,300.865,147.146,320,170.667,320h170.667C364.854,320,384,300.865,384,277.333    c0-11.76,9.563-21.333,21.333-21.333h85.333V405.333z"/>
	</g>
</g>
<g>
</g>
<g>
</g>
<g>
</g>
<g>
</g>
<g>
</g>
<g>
</g>
<g>
</g>
<g>
</g>
<g>
</g>
<g>
</g>
<g>
</g>
<g>
</g>
<g>
</g>
<g>
</g>
<g>
</g>
</svg>
