<?xml version="1.0" encoding="iso-8859-1"?>
<!-- Generator: Adobe Illustrator 19.0.0, SVG Export Plug-In . SVG Version: 6.00 Build 0)  -->
<svg xmlns="http://www.w3.org/2000/svg" xmlns:xlink="http://www.w3.org/1999/xlink" version="1.1" id="Layer_1" x="0px" y="0px" viewBox="0 0 512 512" style="enable-background:new 0 0 512 512;" xml:space="preserve">
<g>
	<g>
		<path d="M510.047,239.525l0.161-0.108l-40.875-61.313v-71.438c0-23.531-19.146-42.667-42.667-42.667H85.333    c-23.521,0-42.667,19.135-42.667,42.667v71.438L1.792,239.417l0.161,0.108C0.82,241.219,0,243.139,0,245.333v160    C0,428.865,19.146,448,42.667,448h426.667C492.854,448,512,428.865,512,405.333v-160C512,243.139,511.18,241.219,510.047,239.525z     M469.333,216.563l12.069,18.104h-12.069V216.563z M420.883,85.333L267.333,210.01c-6.896,4.385-16.854,3.688-21.896,0.563    L91.125,85.333H420.883z M64,106.667c0-4.68,1.819-8.785,4.384-12.307l164.512,133.443c6.938,4.49,14.917,6.865,23.104,6.865    c7.875,0,15.583-2.198,22.333-6.375c0.604-0.323,1.188-0.708,1.75-1.156L443.617,94.363c2.564,3.521,4.383,7.625,4.383,12.303v128    h-42.667c-23.521,0-42.667,19.135-42.667,42.667c0,11.76-9.563,21.333-21.333,21.333H170.667    c-11.771,0-21.333-9.573-21.333-21.333c0-23.531-19.146-42.667-42.667-42.667H64V106.667z M42.667,216.563v18.104H30.598    L42.667,216.563z M490.667,405.333c0,11.76-9.563,21.333-21.333,21.333H42.667c-11.771,0-21.333-9.573-21.333-21.333V256h85.333    c11.771,0,21.333,9.573,21.333,21.333C128,300.865,147.146,320,170.667,320h170.667C364.854,320,384,300.865,384,277.333    c0-11.76,9.563-21.333,21.333-21.333h85.333V405.333z"/>
	</g>
</g>
<g>
</g>
<g>
</g>
<g>
</g>
<g>
</g>
<g>
</g>
<g>
</g>
<g>
</g>
<g>
</g>
<g>
</g>
<g>
</g>
<g>
</g>
<g>
</g>
<g>
</g>
<g>
</g>
<g>
</g>
</svg>
