<?xml version="1.0" encoding="iso-8859-1"?>
<!-- Generator: Adobe Illustrator 19.0.0, SVG Export Plug-In . SVG Version: 6.00 Build 0)  -->
<svg xmlns="http://www.w3.org/2000/svg" xmlns:xlink="http://www.w3.org/1999/xlink" version="1.1" id="Layer_1" x="0px" y="0px" viewBox="0 0 512 512" style="enable-background:new 0 0 512 512;" xml:space="preserve">
<g>
	<g>
		<g>
			<path d="M469.334,170.682h-5.926L390.136,42.699c-5.677-9.895-14.844-16.968-25.813-19.905     c-4.078-1.089-8.225-1.574-12.331-1.437c-6.885,0.229-13.652,2.177-19.773,5.739L21.157,208.18     C7.546,216.102-0.063,230.547,0,245.347c0.03,7.152,1.865,14.387,5.656,21.008L64,368.259v79.744     c0,23.53,19.135,42.665,42.667,42.665h362.667c23.531,0,42.667-19.134,42.667-42.665V213.347     C512,189.817,492.865,170.682,469.334,170.682z M64,325.298l-39.436-68.884L64,261.724V325.298z M64,213.334v26.861     l-39.673-5.342c1.793-3.267,4.129-6.249,7.559-8.247l32.698-19.035C64.323,209.473,64,211.36,64,213.334z M365.062,46.468     c2.615,1.78,4.926,3.973,6.553,6.814l67.202,117.385H321.006L365.062,46.468z M342.72,45.65l-44.346,125.017H127.972     L342.72,45.65z M490.667,448c0,11.76-9.573,21.333-21.333,21.333H106.667c-11.76,0-21.333-9.573-21.333-21.333V213.334     c0-11.76,9.573-21.333,21.333-21.333h362.667c11.76,0,21.333,9.573,21.333,21.333V448z"/>
			<path d="M437.334,234.667H352c-5.896,0-10.667,4.771-10.667,10.667V352c0,5.896,4.771,10.667,10.667,10.667h85.333     c5.896,0,10.667-4.771,10.667-10.667V245.334C448,239.438,443.23,234.667,437.334,234.667z M426.667,341.334h-64V256h64V341.334z     "/>
			<path d="M309.334,405.334H138.667c-5.896,0-10.667,4.771-10.667,10.667c0,5.896,4.771,10.667,10.667,10.667h170.667     c5.896,0,10.667-4.771,10.667-10.667C320,410.104,315.23,405.334,309.334,405.334z"/>
			<path d="M138.667,362.667H224c5.896,0,10.667-4.771,10.667-10.667c0-5.896-4.771-10.667-10.667-10.667h-85.333     c-5.896,0-10.667,4.771-10.667,10.667C128,357.896,132.771,362.667,138.667,362.667z"/>
		</g>
	</g>
</g>
<g>
</g>
<g>
</g>
<g>
</g>
<g>
</g>
<g>
</g>
<g>
</g>
<g>
</g>
<g>
</g>
<g>
</g>
<g>
</g>
<g>
</g>
<g>
</g>
<g>
</g>
<g>
</g>
<g>
</g>
</svg>
