<?xml version="1.0" encoding="iso-8859-1"?>
<!-- Generator: Adobe Illustrator 19.0.0, SVG Export Plug-In . SVG Version: 6.00 Build 0)  -->
<svg xmlns="http://www.w3.org/2000/svg" xmlns:xlink="http://www.w3.org/1999/xlink" version="1.1" id="Layer_1" x="0px" y="0px" viewBox="0 0 512 512" style="enable-background:new 0 0 512 512;" xml:space="preserve">
<g>
	<g>
		<g>
			<path d="M426.667,106.667h-384C19.146,106.667,0,125.802,0,149.333v256C0,428.865,19.146,448,42.667,448h384     c23.521,0,42.667-19.135,42.667-42.667v-256C469.333,125.802,450.188,106.667,426.667,106.667z M425.826,128L246,274.01     c-6.896,4.396-16.854,3.688-21.896,0.563L43.495,128H425.826z M448,405.333c0,11.76-9.563,21.333-21.333,21.333h-384     c-11.771,0-21.333-9.573-21.333-21.333v-256c0-3.551,1.087-6.754,2.629-9.703l187.6,152.172     c6.938,4.49,14.917,6.865,23.104,6.865c7.875,0,15.583-2.198,22.333-6.375c0.604-0.323,1.188-0.708,1.75-1.156l186.617-151.513     c1.543,2.951,2.633,6.158,2.633,9.711V405.333z"/>
			<path d="M469.333,64H74.667C68.771,64,64,68.771,64,74.667c0,5.896,4.771,10.667,10.667,10.667h394.667     c11.771,0,21.333,9.573,21.333,21.333v266.667c0,5.896,4.771,10.667,10.667,10.667c5.896,0,10.667-4.771,10.667-10.667V106.667     C512,83.135,492.854,64,469.333,64z"/>
		</g>
	</g>
</g>
<g>
</g>
<g>
</g>
<g>
</g>
<g>
</g>
<g>
</g>
<g>
</g>
<g>
</g>
<g>
</g>
<g>
</g>
<g>
</g>
<g>
</g>
<g>
</g>
<g>
</g>
<g>
</g>
<g>
</g>
</svg>
