<?xml version="1.0" encoding="iso-8859-1"?>
<!-- Generator: Adobe Illustrator 19.0.0, SVG Export Plug-In . SVG Version: 6.00 Build 0)  -->
<svg xmlns="http://www.w3.org/2000/svg" xmlns:xlink="http://www.w3.org/1999/xlink" version="1.1" id="Layer_1" x="0px" y="0px" viewBox="0 0 469.333 469.333" style="enable-background:new 0 0 469.333 469.333;" xml:space="preserve">
<g>
	<g>
		<path d="M467.542,260.75l-40.875-61.312v-82.104c0-2.833-1.125-5.542-3.125-7.542L316.875,3.125c-2-2-4.708-3.125-7.542-3.125    h-224C61.812,0,42.667,19.135,42.667,42.667v156.771L1.792,260.75C0.625,262.5,0,264.562,0,266.667v160    c0,23.531,19.146,42.667,42.667,42.667h384c23.521,0,42.667-19.135,42.667-42.667v-160    C469.333,264.562,468.708,262.5,467.542,260.75z M426.667,237.896L438.736,256h-12.069V237.896z M320,36.417l70.25,70.25h-48.917    c-11.771,0-21.333-9.573-21.333-21.333V36.417z M64,42.667c0-11.76,9.563-21.333,21.333-21.333h213.333v64    c0,23.531,19.146,42.667,42.667,42.667h64v128H384c-23.521,0-42.667,19.135-42.667,42.667c0,11.76-9.563,21.333-21.333,21.333    H149.333C137.562,320,128,310.427,128,298.667C128,275.135,108.854,256,85.333,256H64V42.667z M42.667,237.896V256H30.598    L42.667,237.896z M448,426.667c0,11.76-9.563,21.333-21.333,21.333h-384c-11.771,0-21.333-9.573-21.333-21.333V277.333h64    c11.771,0,21.333,9.573,21.333,21.333c0,23.531,19.146,42.667,42.667,42.667H320c23.521,0,42.667-19.135,42.667-42.667    c0-11.76,9.563-21.333,21.333-21.333h64V426.667z"/>
	</g>
</g>
<g>
</g>
<g>
</g>
<g>
</g>
<g>
</g>
<g>
</g>
<g>
</g>
<g>
</g>
<g>
</g>
<g>
</g>
<g>
</g>
<g>
</g>
<g>
</g>
<g>
</g>
<g>
</g>
<g>
</g>
</svg>
