<?xml version="1.0" encoding="iso-8859-1"?>
<!-- Generator: Adobe Illustrator 19.0.0, SVG Export Plug-In . SVG Version: 6.00 Build 0)  -->
<svg xmlns="http://www.w3.org/2000/svg" xmlns:xlink="http://www.w3.org/1999/xlink" version="1.1" id="Layer_1" x="0px" y="0px" viewBox="0 0 469.333 469.333" style="enable-background:new 0 0 469.333 469.333;" xml:space="preserve">
<g>
	<g>
		<path d="M458.667,0h-448C4.771,0,0,4.771,0,10.667v416c0,23.531,19.146,42.667,42.667,42.667h384    c23.521,0,42.667-19.135,42.667-42.667v-416C469.333,4.771,464.563,0,458.667,0z M447.273,21.333    c-3.728,58.061-35.999,103.229-50.523,120.542c-3.958,4.74-9.875,7.458-16.229,7.458H245.333v-22.849    c18.346-4.77,32-21.326,32-41.151c0-23.531-19.146-42.667-42.667-42.667S192,61.802,192,85.333c0,19.826,13.654,36.381,32,41.151    v22.849H88.812c-6.354,0-12.271-2.719-16.25-7.469C58.057,124.562,25.788,79.395,22.06,21.333H447.273z M213.333,85.333    c0-11.76,9.563-21.333,21.333-21.333S256,73.573,256,85.333c0,11.76-9.563,21.333-21.333,21.333S213.333,97.094,213.333,85.333z     M256,234.667c0,11.76-9.563,21.333-21.333,21.333s-21.333-9.573-21.333-21.333s9.563-21.333,21.333-21.333    S256,222.906,256,234.667z M448,426.667c0,11.76-9.563,21.333-21.333,21.333h-384c-11.771,0-21.333-9.573-21.333-21.333v-325.4    c11.23,23.556,24.706,42.163,34.875,54.296c8.042,9.604,19.917,15.104,32.604,15.104H224v22.849c-18.346,4.77-32,21.326-32,41.151    c0,23.531,19.146,42.667,42.667,42.667s42.667-19.135,42.667-42.667c0-19.826-13.654-36.382-32-41.151v-22.849h135.187    c12.688,0,24.563-5.5,32.583-15.094c10.18-12.139,23.661-30.75,34.896-54.31V426.667z"/>
	</g>
</g>
<g>
</g>
<g>
</g>
<g>
</g>
<g>
</g>
<g>
</g>
<g>
</g>
<g>
</g>
<g>
</g>
<g>
</g>
<g>
</g>
<g>
</g>
<g>
</g>
<g>
</g>
<g>
</g>
<g>
</g>
</svg>
