<?xml version="1.0" encoding="iso-8859-1"?>
<!-- Generator: Adobe Illustrator 19.0.0, SVG Export Plug-In . SVG Version: 6.00 Build 0)  -->
<svg xmlns="http://www.w3.org/2000/svg" xmlns:xlink="http://www.w3.org/1999/xlink" version="1.1" id="Layer_1" x="0px" y="0px" viewBox="0 0 512 512" style="enable-background:new 0 0 512 512;" xml:space="preserve">
<g>
	<g>
		<g>
			<path d="M330.667,85.333H181.333c-17.646,0-32,14.354-32,32V224c0,17.646,14.354,32,32,32h149.333c17.646,0,32-14.354,32-32     V117.333C362.667,99.688,348.313,85.333,330.667,85.333z M181.333,106.667h149.333c1.283,0,2.477,0.315,3.616,0.73     l-78.293,64.134l-78.275-64.134C178.854,106.98,180.051,106.667,181.333,106.667z M341.333,224     c0,5.885-4.781,10.667-10.667,10.667H181.333c-5.885,0-10.667-4.781-10.667-10.667v-94.815l72.792,59.565     c3.771,2.427,8.104,3.708,12.542,3.708c4.406,0,8.74-1.271,13.552-4.427l71.781-58.828V224z"/>
			<path d="M469.333,21.333H42.667C19.135,21.333,0,40.469,0,64v298.667c0,23.531,19.135,42.667,42.667,42.667h149.362     c-0.46,17.052-3.728,44.306-15.893,57.104c-4.469,4.708-9.604,6.896-16.135,6.896c-5.896,0-10.667,4.771-10.667,10.667     c0,5.896,4.771,10.667,10.667,10.667h192c5.896,0,10.667-4.771,10.667-10.667c0-5.896-4.771-10.667-10.667-10.667     c-6.531,0-11.667-2.188-16.135-6.896c-12.165-12.798-15.434-40.052-15.893-57.104h149.362c23.531,0,42.667-19.135,42.667-42.667     V64C512,40.469,492.865,21.333,469.333,21.333z M197.729,469.333c12.881-19.749,15.374-48.188,15.695-64h85.151     c0.322,15.813,2.814,44.251,15.695,64H197.729z M490.667,362.667c0,11.76-9.573,21.333-21.333,21.333H42.667     c-11.76,0-21.333-9.573-21.333-21.333V320h469.333V362.667z M490.667,298.667H21.333V64c0-11.76,9.573-21.333,21.333-21.333     h426.667c11.76,0,21.333,9.573,21.333,21.333V298.667z"/>
			<circle cx="256" cy="352" r="21.333"/>
		</g>
	</g>
</g>
<g>
</g>
<g>
</g>
<g>
</g>
<g>
</g>
<g>
</g>
<g>
</g>
<g>
</g>
<g>
</g>
<g>
</g>
<g>
</g>
<g>
</g>
<g>
</g>
<g>
</g>
<g>
</g>
<g>
</g>
</svg>
