<?xml version="1.0" encoding="iso-8859-1"?>
<!-- Generator: Adobe Illustrator 19.0.0, SVG Export Plug-In . SVG Version: 6.00 Build 0)  -->
<svg xmlns="http://www.w3.org/2000/svg" xmlns:xlink="http://www.w3.org/1999/xlink" version="1.1" id="Layer_1" x="0px" y="0px" viewBox="0 0 469.333 469.333" style="enable-background:new 0 0 469.333 469.333;" xml:space="preserve">
<g>
	<g>
		<g>
			<path d="M466.208,109.792L359.542,3.125c-2-2-4.708-3.125-7.542-3.125H42.667C19.135,0,0,19.135,0,42.667v384     c0,23.531,19.135,42.667,42.667,42.667h384c23.531,0,42.667-19.135,42.667-42.667V117.333     C469.333,114.5,468.208,111.792,466.208,109.792z M362.667,36.417l70.25,70.25H384c-11.76,0-21.333-9.573-21.333-21.333V36.417z      M448,426.667c0,11.76-9.573,21.333-21.333,21.333h-384c-11.76,0-21.333-9.573-21.333-21.333v-384     c0-11.76,9.573-21.333,21.333-21.333h298.667v64C341.333,108.865,360.469,128,384,128h64V426.667z"/>
			<path d="M234.667,234.667c41.167,0,74.667-33.5,74.667-74.667c0-41.167-33.5-74.667-74.667-74.667S160,118.833,160,160     C160,201.167,193.5,234.667,234.667,234.667z M234.667,106.667C264.073,106.667,288,130.594,288,160     s-23.927,53.333-53.333,53.333S181.333,189.406,181.333,160S205.26,106.667,234.667,106.667z"/>
			<path d="M349.323,286.531C322.469,272.604,280.771,256,234.667,256s-87.802,16.604-114.656,30.531     c-21.396,11.094-34.677,32.948-34.677,57.042v9.76C85.333,370.24,99.01,384,115.812,384h237.708     C370.323,384,384,370.24,384,353.333v-9.76C384,319.479,370.719,297.625,349.323,286.531z M362.667,353.333     c0,5.146-4.104,9.333-9.146,9.333H115.812c-5.042,0-9.146-4.188-9.146-9.333v-9.76c0-16.094,8.875-30.698,23.156-38.104     c24.76-12.833,63.042-28.135,104.844-28.135s80.083,15.302,104.844,28.135c14.281,7.406,23.156,22.01,23.156,38.104V353.333z"/>
		</g>
	</g>
</g>
<g>
</g>
<g>
</g>
<g>
</g>
<g>
</g>
<g>
</g>
<g>
</g>
<g>
</g>
<g>
</g>
<g>
</g>
<g>
</g>
<g>
</g>
<g>
</g>
<g>
</g>
<g>
</g>
<g>
</g>
</svg>
