<?xml version="1.0" encoding="iso-8859-1"?>
<!-- Generator: Adobe Illustrator 19.0.0, SVG Export Plug-In . SVG Version: 6.00 Build 0)  -->
<svg xmlns="http://www.w3.org/2000/svg" xmlns:xlink="http://www.w3.org/1999/xlink" version="1.1" id="Layer_1" x="0px" y="0px" viewBox="0 0 512 512" style="enable-background:new 0 0 512 512;" xml:space="preserve">
<g>
	<g>
		<path d="M410.823,21.333c-27.021,0-52.438,10.521-71.542,29.635L106.135,284.115c-13.417,13.417-20.802,31.24-20.802,50.208    c0,39.156,31.854,71.01,71.01,71.01c18.969,0,36.792-7.385,50.208-20.802l216.99-216.99c4.167-4.167,4.167-10.917,0-15.083    c-4.167-4.167-10.917-4.167-15.083,0l-216.99,216.99C182.083,378.833,169.615,384,156.344,384    c-27.396,0-49.677-22.281-49.677-49.677c0-13.271,5.167-25.74,14.552-35.125L354.365,66.052    c15.083-15.083,35.135-23.385,56.458-23.385c44.021,0,79.844,35.823,79.844,79.844c0,21.323-8.302,41.375-23.385,56.458    L209.135,437.115c-20.781,20.781-48.406,32.219-77.792,32.219c-60.656,0-110.01-49.354-110.01-110.01    c0-29.385,11.438-57.01,32.219-77.792l241.99-241.99c4.167-4.167,4.167-10.917,0-15.083c-4.167-4.167-10.917-4.167-15.083,0    l-241.99,241.99C13.656,291.25,0,324.24,0,359.323c0,72.427,58.917,131.344,131.344,131.344c35.083,0,68.073-13.656,92.875-38.469    l258.146-258.146C501.479,174.948,512,149.531,512,122.51C512,66.719,466.615,21.333,410.823,21.333z"/>
	</g>
</g>
<g>
</g>
<g>
</g>
<g>
</g>
<g>
</g>
<g>
</g>
<g>
</g>
<g>
</g>
<g>
</g>
<g>
</g>
<g>
</g>
<g>
</g>
<g>
</g>
<g>
</g>
<g>
</g>
<g>
</g>
</svg>
