<?xml version="1.0" encoding="iso-8859-1"?>
<!-- Generator: Adobe Illustrator 19.0.0, SVG Export Plug-In . SVG Version: 6.00 Build 0)  -->
<svg xmlns="http://www.w3.org/2000/svg" xmlns:xlink="http://www.w3.org/1999/xlink" version="1.1" id="Layer_1" x="0px" y="0px" viewBox="0 0 512 512" style="enable-background:new 0 0 512 512;" xml:space="preserve">
<g>
	<g>
		<path d="M256,0C114.844,0,0,114.844,0,256s114.844,256,256,256c68.385,0,132.667-26.625,181.021-74.979    c4.167-4.167,4.167-10.917,0-15.083c-4.167-4.167-10.917-4.167-15.083,0C377.615,466.26,318.688,490.667,256,490.667    C126.604,490.667,21.333,385.396,21.333,256S126.604,21.333,256,21.333S490.667,126.604,490.667,256v21.333    c0,35.292-28.708,64-64,64s-64-28.708-64-64v-96c0-5.896-4.771-10.667-10.667-10.667c-5.896,0-10.667,4.771-10.667,10.667v11.327    c-19.461-26.138-50.319-43.327-85.333-43.327c-58.813,0-106.667,47.854-106.667,106.667S197.188,362.667,256,362.667    c39.229,0,73.206-21.53,91.734-53.163c12.737,31.132,43.271,53.163,78.932,53.163c47.052,0,85.333-38.281,85.333-85.333V256    C512,114.844,397.156,0,256,0z M256,341.333c-47.052,0-85.333-38.281-85.333-85.333s38.281-85.333,85.333-85.333    s85.333,38.281,85.333,85.333S303.052,341.333,256,341.333z"/>
	</g>
</g>
<g>
</g>
<g>
</g>
<g>
</g>
<g>
</g>
<g>
</g>
<g>
</g>
<g>
</g>
<g>
</g>
<g>
</g>
<g>
</g>
<g>
</g>
<g>
</g>
<g>
</g>
<g>
</g>
<g>
</g>
</svg>
