<?xml version="1.0" encoding="iso-8859-1"?>
<!-- Generator: Adobe Illustrator 19.0.0, SVG Export Plug-In . SVG Version: 6.00 Build 0)  -->
<svg xmlns="http://www.w3.org/2000/svg" xmlns:xlink="http://www.w3.org/1999/xlink" version="1.1" id="Layer_1" x="0px" y="0px" viewBox="0 0 469.333 469.333" style="enable-background:new 0 0 469.333 469.333;" xml:space="preserve">
<g>
	<g>
		<g>
			<path d="M458.667,0h-448C4.771,0,0,4.771,0,10.667v416c0,23.531,19.135,42.667,42.667,42.667h384     c23.531,0,42.667-19.135,42.667-42.667v-416C469.333,4.771,464.563,0,458.667,0z M448,426.667     c0,11.76-9.573,21.333-21.333,21.333h-384c-11.76,0-21.333-9.573-21.333-21.333V21.333H448V426.667z"/>
			<path d="M149.333,149.333H320c23.531,0,42.667-19.135,42.667-42.667S343.531,64,320,64H149.333     c-23.531,0-42.667,19.135-42.667,42.667S125.802,149.333,149.333,149.333z M149.333,85.333H320     c11.76,0,21.333,9.573,21.333,21.333S331.76,128,320,128H149.333c-11.76,0-21.333-9.573-21.333-21.333     S137.573,85.333,149.333,85.333z"/>
		</g>
	</g>
</g>
<g>
</g>
<g>
</g>
<g>
</g>
<g>
</g>
<g>
</g>
<g>
</g>
<g>
</g>
<g>
</g>
<g>
</g>
<g>
</g>
<g>
</g>
<g>
</g>
<g>
</g>
<g>
</g>
<g>
</g>
</svg>
