<?xml version="1.0" encoding="iso-8859-1"?>
<!-- Generator: Adobe Illustrator 19.0.0, SVG Export Plug-In . SVG Version: 6.00 Build 0)  -->
<svg xmlns="http://www.w3.org/2000/svg" xmlns:xlink="http://www.w3.org/1999/xlink" version="1.1" id="Layer_1" x="0px" y="0px" viewBox="0 0 512 512" style="enable-background:new 0 0 512 512;" xml:space="preserve">
<g>
	<g>
		<g>
			<path d="M405.333,0H106.667C83.146,0,64,19.135,64,42.667v426.667C64,492.865,83.146,512,106.667,512h298.667     C428.854,512,448,492.865,448,469.333V42.667C448,19.135,428.854,0,405.333,0z M128,490.667h-21.333     c-11.771,0-21.333-9.573-21.333-21.333V42.667c0-11.76,9.563-21.333,21.333-21.333H128V490.667z M426.667,469.333     c0,11.76-9.563,21.333-21.333,21.333h-256V21.333h256c11.771,0,21.333,9.573,21.333,21.333V469.333z"/>
			<path d="M288,149.333c-52.938,0-96,43.063-96,96s43.063,96,96,96c16.875,0,33.479-4.448,48.021-12.854     c5.083-2.948,6.833-9.479,3.875-14.573c-2.979-5.135-9.542-6.833-14.583-3.885C314.042,316.552,301.146,320,288,320     c-41.167,0-74.667-33.5-74.667-74.667c0-41.167,33.5-74.667,74.667-74.667s74.667,33.5,74.667,74.667v21.333     c0,5.885-4.792,10.667-10.667,10.667s-10.667-4.781-10.667-10.667v-53.333c0-5.896-4.771-10.667-10.667-10.667     c-2.869,0-5.445,1.16-7.361,2.999C313.879,197.266,301.595,192,288,192c-29.417,0-53.333,23.927-53.333,53.333     s23.917,53.333,53.333,53.333c14.371,0,27.374-5.771,36.973-15.04c5.669,9.001,15.625,15.04,27.027,15.04     c17.646,0,32-14.354,32-32v-21.333C384,192.396,340.938,149.333,288,149.333z M288,277.333c-17.646,0-32-14.354-32-32     c0-17.646,14.354-32,32-32s32,14.354,32,32C320,262.979,305.646,277.333,288,277.333z"/>
		</g>
	</g>
</g>
<g>
</g>
<g>
</g>
<g>
</g>
<g>
</g>
<g>
</g>
<g>
</g>
<g>
</g>
<g>
</g>
<g>
</g>
<g>
</g>
<g>
</g>
<g>
</g>
<g>
</g>
<g>
</g>
<g>
</g>
</svg>
